<?xml version="1.0" standalone="no"?>
<!DOCTYPE svg PUBLIC "-//W3C//DTD SVG 20010904//EN"
 "http://www.w3.org/TR/2001/REC-SVG-20010904/DTD/svg10.dtd">
<svg version="1.0" xmlns="http://www.w3.org/2000/svg"
 width="32.000000pt" height="32.000000pt" viewBox="0 0 32.000000 32.000000"
 preserveAspectRatio="xMidYMid meet">

<g transform="translate(0.000000,32.000000) scale(0.100000,-0.100000)"
fill="#000000" stroke="none">
<path d="M112 234 c-12 -8 -22 -21 -22 -27 0 -8 3 -8 9 2 11 17 18 4 19 -37 0
-18 5 -39 11 -46 6 -7 8 -16 4 -19 -3 -4 8 -7 27 -7 27 0 31 2 20 15 -6 8 -9
19 -5 25 4 6 -4 10 -19 10 -44 0 -28 20 17 21 23 1 32 4 20 6 -13 2 -23 9 -23
15 0 5 7 8 15 4 9 -3 15 0 15 8 0 8 -10 11 -30 8 -17 -2 -30 0 -30 6 0 16 18
24 33 15 6 -4 17 -8 22 -8 6 0 18 -16 27 -35 10 -19 18 -29 18 -22 0 22 -28
69 -45 76 -28 10 -60 7 -83 -10z m23 -4 c-3 -5 -12 -10 -18 -10 -7 0 -6 4 3
10 19 12 23 12 15 0z m25 -40 c0 -5 -7 -10 -15 -10 -8 0 -15 5 -15 10 0 6 7
10 15 10 8 0 15 -4 15 -10z m0 -66 c0 -8 -4 -12 -10 -9 -5 3 -10 10 -10 16 0
5 5 9 10 9 6 0 10 -7 10 -16z"/>
<path d="M81 174 c0 -11 3 -14 6 -6 3 7 2 16 -1 19 -3 4 -6 -2 -5 -13z"/>
<path d="M188 142 c-4 -12 -2 -20 3 -16 5 3 9 0 9 -6 0 -6 5 -8 11 -4 7 4 7 9
2 13 -6 3 -12 13 -15 21 -3 10 -6 8 -10 -8z"/>
<path d="M90 143 c0 -6 8 -17 18 -24 16 -13 16 -13 2 6 -8 11 -16 22 -17 24
-2 2 -3 0 -3 -6z"/>
</g>
</svg>
